<?xml version="1.0" encoding="UTF-8"?>
<svg version="1.1" xmlns="http://www.w3.org/2000/svg" width="1400" height="388">
<path d="M0 0 C4.69994029 1.71728588 7.20959499 3.86606666 10 8 C10.91988369 10.75965107 11.13401038 12.4319998 11.15821838 15.28007507 C11.16800846 16.15604277 11.17779854 17.03201046 11.18788528 17.93452263 C11.19651659 19.37591952 11.19651659 19.37591952 11.20532227 20.84643555 C11.22015467 22.37271419 11.22015467 22.37271419 11.23528671 23.92982674 C11.26706368 27.33210005 11.29177785 30.73438673 11.31640625 34.13671875 C11.33721643 36.53936577 11.35839772 38.9420096 11.37992859 41.34465027 C11.4361457 47.79246355 11.48569872 54.24031022 11.53303528 60.68819427 C11.56239149 64.67277204 11.59287585 68.65733974 11.62365723 72.64190674 C11.7348934 87.12922632 11.83663144 101.61658768 11.92922783 116.10403824 C11.97904444 123.88628854 12.03355386 131.66848862 12.09130859 139.45068359 C12.1546055 148.07309326 12.20096248 156.6954363 12.23117065 165.31802368 C12.24219016 168.3433086 12.2599989 171.36843484 12.28372192 174.39364624 C12.3155317 178.50989459 12.3233964 182.62581917 12.328125 186.7421875 C12.34042648 187.91790817 12.35272797 189.09362885 12.36540222 190.30497742 C12.34988372 195.92772348 12.30474123 200.20625535 9 205 C4.2841368 209.25577898 1.4604156 210.29837071 -4.75 210.21875 C-9.60934224 209.74631395 -12.98357851 206.64050869 -16 203 C-16.70513963 201.01323817 -17.3763455 199.01382708 -18 197 C-18.81339844 197.51949219 -19.62679687 198.03898438 -20.46484375 198.57421875 C-38.5492758 209.73503456 -58.05165096 213.30459585 -79 209 C-98.6001606 204.25386182 -113.87488753 192.71862913 -125 176 C-135.69077827 158.31636232 -138.22651747 137.00409873 -133.5 116.9375 C-127.00907033 96.64767091 -114.03239889 80.83086168 -95.1875 70.6875 C-78.47055419 62.9736394 -58.00644534 60.41269596 -40.1875 66.125 C-23.8421875 72.1578125 -23.8421875 72.1578125 -19 77 C-18.99120064 75.75758293 -18.99120064 75.75758293 -18.98222351 74.49006653 C-18.92427476 66.67716191 -18.8521856 58.8645425 -18.76428509 51.05191517 C-18.7195932 47.03552578 -18.68033465 43.01923754 -18.65356445 39.00268555 C-18.62751939 35.12510696 -18.58710899 31.24791788 -18.53681374 27.37058067 C-18.52015305 25.89269551 -18.50863378 24.41474298 -18.50238609 22.93677711 C-18.49273585 20.86344376 -18.4646683 18.79110504 -18.43237305 16.71801758 C-18.42126999 15.53887283 -18.41016693 14.35972809 -18.39872742 13.14485168 C-17.79555337 8.38748406 -15.99361526 5.87244266 -12.4375 2.75 C-8.32432981 -0.20304527 -4.98380796 -0.5113982 0 0 Z M-95.8125 107.8125 C-104.7253999 118.65933101 -107.32548928 131.23999752 -106 145 C-103.68938894 156.88511917 -96.88870998 167.04062063 -87 174 C-75.1684242 180.89716667 -63.18558873 183.11898773 -49.6953125 180.3125 C-38.19755822 176.40391498 -28.30285406 168.73489242 -22.359375 158.05078125 C-17.22393707 146.99778409 -15.60208599 133.68908284 -19.625 121.9375 C-25.65516373 108.19629066 -35.21867148 99.76382626 -49 94 C-65.6211269 88.26133724 -84.36281812 95.59786092 -95.8125 107.8125 Z " fill="#FD8000" transform="translate(760,17)"/>
<path d="M0 0 C4.54679159 3.83577069 4.54679159 3.83577069 5.9609375 6.6640625 C6.06730017 9.18194448 6.11314594 11.67269887 6.11483765 14.19122314 C6.12141103 15.36962474 6.12141103 15.36962474 6.1281172 16.57183242 C6.14153058 19.21878908 6.14768975 21.86571243 6.15380859 24.51269531 C6.16170756 26.4047104 6.16997638 28.29672398 6.17858887 30.18873596 C6.20483271 36.41487179 6.22011884 42.64101442 6.234375 48.8671875 C6.23973371 51.00856277 6.24511121 53.14993799 6.25050735 55.29131317 C6.27213952 64.19742881 6.29087704 73.10354262 6.30212975 82.00967789 C6.31837366 94.78323942 6.35155846 107.55649697 6.40853059 120.3299439 C6.44720287 129.30579997 6.46675923 138.28157464 6.47205031 147.25751185 C6.47570747 152.62114578 6.4877676 157.98445567 6.52015305 163.34799957 C6.55018582 168.39432479 6.55656256 173.44012911 6.54476929 178.48652458 C6.54454815 180.33846666 6.55288623 182.19043258 6.57042313 184.04229164 C6.59307299 186.57181226 6.5848404 189.09943732 6.56893921 191.62896729 C6.5828213 192.36107902 6.59670338 193.09319075 6.61100614 193.84748769 C6.52310059 199.52669247 4.82526835 201.80678251 0.9609375 205.6640625 C-3.31388944 208.5556121 -8.06382851 208.18181043 -13.0390625 207.6640625 C-17.20439811 205.94359779 -19.55151754 203.39537993 -22.0390625 199.6640625 C-22.4180557 198.00718198 -22.7587288 196.34045801 -23.0390625 194.6640625 C-23.73128906 195.11136719 -24.42351562 195.55867187 -25.13671875 196.01953125 C-42.70536858 206.87552173 -63.06218513 210.719002 -83.53125 206.98046875 C-101.91064524 202.37606724 -117.08867053 192.03459241 -128.0390625 176.6640625 C-128.60238281 175.87515625 -129.16570312 175.08625 -129.74609375 174.2734375 C-140.29389332 158.1446503 -142.70370706 136.98375089 -139.390625 118.2421875 C-134.4860084 98.3722023 -123.23612418 82.62580246 -106.0390625 71.6640625 C-88.72803678 61.38347998 -68.69287877 58.14912331 -49.0390625 62.6640625 C-46.17907556 63.4628273 -43.38994801 64.39437233 -40.6015625 65.4140625 C-39.66292358 65.75546265 -39.66292358 65.75546265 -38.70532227 66.10375977 C-34.92742125 67.59906466 -31.66622303 69.49917923 -28.30053711 71.77832031 C-27.49966171 72.31869934 -26.69878632 72.85907837 -25.87364197 73.41583252 C-24.96552513 74.03370636 -24.96552513 74.03370636 -24.0390625 74.6640625 C-24.03097565 73.89033798 -24.02288879 73.11661346 -24.01455688 72.31944275 C-23.93643233 65.00755444 -23.84908862 57.69586057 -23.75153542 50.38420773 C-23.7017104 46.62572314 -23.65537989 42.8672648 -23.6171875 39.10864258 C-23.58015946 35.47751066 -23.53375354 31.84660591 -23.48099899 28.21566963 C-23.46254766 26.83432587 -23.44740596 25.45293358 -23.43571854 24.07151604 C-23.2901069 7.44737356 -23.2901069 7.44737356 -19.453125 2.703125 C-18.86273437 2.23648437 -18.27234375 1.76984375 -17.6640625 1.2890625 C-17.07882812 0.80695312 -16.49359375 0.32484375 -15.890625 -0.171875 C-10.99040254 -3.25260558 -4.82853399 -3.16352227 0 0 Z M-101.2890625 105.9765625 C-110.0653236 116.80061785 -112.27167374 129.13055851 -111.0390625 142.6640625 C-108.7758161 154.54949419 -101.90477839 164.70837792 -92.0390625 171.6640625 C-80.65227215 178.39587566 -68.68478942 180.53930859 -55.68359375 178.01171875 C-44.2942789 174.57871699 -34.59222755 167.47467808 -28.5703125 157.14453125 C-22.71286403 145.7872111 -20.98555472 134.46481012 -23.9140625 121.9140625 C-28.97672271 107.79190507 -38.08168633 99.31330553 -51.26953125 92.86328125 C-68.98314499 85.19321155 -88.80500634 92.54435017 -101.2890625 105.9765625 Z " fill="#009531" transform="translate(1394.0390625,21.3359375)"/>
<path d="M0 0 C14.66291244 11.39541106 25.60568816 28.07140751 28.5859375 46.5625 C31.30765671 68.86547685 26.43325173 89.7917636 12.6796875 107.7421875 C-0.2487448 122.48591337 -17.72655762 131.48065777 -37.1328125 133.8671875 C-59.46418137 135.18676839 -78.98375 128.76355772 -95.8828125 114.0546875 C-110.28703666 100.47004935 -118.19284029 81.86847029 -119.10913086 62.19140625 C-119.627879 41.82881273 -112.35986646 22.93575205 -98.46020508 8.09863281 C-71.63305926 -19.34225045 -30.97973089 -21.09093899 0 0 Z M-74.1328125 25.8671875 C-75.08607422 26.61742187 -75.08607422 26.61742187 -76.05859375 27.3828125 C-82.48013591 33.02123976 -87.37900334 42.49287368 -89.1328125 50.8671875 C-90.02475018 65.62071403 -88.48037412 76.90412811 -79.1328125 88.8671875 C-78.65457031 89.48335938 -78.17632813 90.09953125 -77.68359375 90.734375 C-70.17678657 99.24335039 -58.08790339 103.97826304 -47.0078125 105.078125 C-34.53309514 105.65730831 -22.8910911 100.77419292 -13.58984375 92.64453125 C-3.64531051 82.40016283 0.28720327 70.64569551 0.140625 56.6328125 C-0.77859261 43.97387282 -6.35347803 34.16462262 -15.4453125 25.5546875 C-25.01708726 17.51049649 -35.56283376 14.29061035 -47.953125 14.55859375 C-58.14346148 15.54758218 -66.31806592 19.39408768 -74.1328125 25.8671875 Z " fill="#009531" transform="translate(1057.1328125,95.1328125)"/>
<path d="M0 0 C1.56011827 1.332867 3.10283854 2.68644479 4.625 4.0625 C5.33269531 4.68898438 6.04039063 5.31546875 6.76953125 5.9609375 C19.42764849 17.82035901 27.57701576 35.75488146 28.625 53.0625 C28.70427734 54.34833984 28.70427734 54.34833984 28.78515625 55.66015625 C29.44405369 76.94540838 21.66820629 96.14969126 7.12890625 111.6484375 C-8.59388973 126.80707699 -27.7317972 133.46925106 -49.33203125 133.27734375 C-69.92257276 132.47833744 -87.69448467 123.10526387 -101.61328125 108.265625 C-109.15769297 99.79015663 -113.94794491 89.80153092 -117.375 79.0625 C-117.62121094 78.29164063 -117.86742187 77.52078125 -118.12109375 76.7265625 C-123.13324256 57.02363269 -118.53353256 36.13767145 -108.51220703 18.89941406 C-98.20157916 2.24480606 -82.35552199 -7.98204748 -63.7890625 -13.39453125 C-41.52789998 -18.40149175 -18.12236777 -14.04000791 0 0 Z M-81.3984375 31.4140625 C-89.0628772 41.68380581 -91.51364586 52.39326311 -90.375 65.0625 C-87.95232483 77.46601657 -81.97199349 88.84138008 -71.375 96.0625 C-59.90818309 102.91404205 -48.7271625 105.80085645 -35.5625 102.9375 C-23.60259217 99.68392306 -13.86442864 93.40181451 -7.33203125 82.72265625 C-0.81111312 70.75614764 1.25084113 59.48423214 -2.12890625 46.0703125 C-5.95915253 34.49944299 -14.13643966 25.53270132 -24.375 19.0625 C-44.68040713 9.28123681 -66.80595 14.243397 -81.3984375 31.4140625 Z " fill="#009531" transform="translate(1215.375,95.9375)"/>
<path d="M0 0 C9.49099897 8.79653563 11.92204372 19.58233403 12.63312912 32.12013626 C12.7917157 36.40065278 12.81908452 40.68077297 12.8244915 44.96388435 C12.82822323 47.33988738 12.8451218 49.71549762 12.86524963 52.09141541 C12.92007711 58.8342257 12.95149065 65.57708571 12.97583008 72.32006836 C12.99170955 76.47307983 13.02190336 80.62579583 13.06059456 84.7786541 C13.07221018 86.35145372 13.07817461 87.924306 13.07827568 89.49714851 C13.07846795 91.68860048 13.09674026 93.87923233 13.11889648 96.07055664 C13.12396713 97.31406387 13.12903778 98.55757111 13.13426208 99.83876038 C13.55355572 103.40671688 14.35550493 105.27732778 16.51953125 108.1171875 C19.63278722 109.95683876 22.78348247 111.22185781 26.14453125 112.5546875 C30.06320512 114.36888836 32.57640981 116.23094463 34.51953125 120.1171875 C35.08598236 124.76022937 34.94076439 128.24231867 32.89453125 132.4921875 C29.67000518 136.05613736 27.05429838 137.84925071 22.19140625 138.36328125 C11.37178011 138.64538807 1.30826949 135.39982564 -6.8125 128.078125 C-14.71046413 118.79293064 -16.80761003 107.47495231 -16.67578125 95.7109375 C-16.67295135 94.7456311 -16.67012146 93.78032471 -16.66720581 92.7857666 C-16.65608999 89.72944272 -16.6310016 86.67342149 -16.60546875 83.6171875 C-16.59542783 81.53385843 -16.58630393 79.45052472 -16.578125 77.3671875 C-16.55617886 72.28373913 -16.52170892 67.20051447 -16.48046875 62.1171875 C-16.97471848 62.38355011 -17.4689682 62.64991272 -17.97819519 62.92434692 C-22.47518908 65.27212407 -26.68562144 66.89085209 -31.65625 68.046875 C-32.99291171 68.37079195 -34.32949793 68.69502057 -35.66601562 69.01953125 C-37.72458747 69.50737688 -39.78415176 69.99015079 -41.84545898 70.46630859 C-53.0939008 73.08686022 -64.73295261 75.99591328 -71.48046875 86.1171875 C-73.2502174 91.42643345 -73.17882639 96.191327 -70.98046875 101.3046875 C-67.98656111 106.61444008 -63.74865891 109.06969065 -58.04296875 110.8984375 C-46.85212723 113.42969927 -35.16520829 112.04917165 -24.48046875 108.1171875 C-23.49046875 107.7871875 -22.50046875 107.4571875 -21.48046875 107.1171875 C-21.24972656 108.02339844 -21.01898437 108.92960937 -20.78125 109.86328125 C-18.80975373 117.22717047 -16.62514622 123.69633469 -12.48046875 130.1171875 C-32.17396109 139.17256145 -56.05524581 140.23683664 -76.48046875 133.1171875 C-87.92569798 128.76521265 -95.22176777 121.92751293 -100.38671875 110.8515625 C-104.24407527 101.20817119 -104.20413301 86.94355704 -100.578125 77.24609375 C-93.57429351 63.66215012 -80.37402348 56.1099265 -66.29400635 51.38317871 C-61.0042046 49.77895316 -55.65036713 48.41238819 -50.29296875 47.0546875 C-32.28831809 43.5378546 -32.28831809 43.5378546 -18.68676758 33.11694336 C-16.95532667 28.81129382 -16.85807055 25.85990245 -18.41796875 21.4921875 C-22.5154849 16.77383557 -29.43759796 14.45347494 -35.60839844 13.94018555 C-49.19402587 13.57726596 -60.75290684 14.6860549 -73.63671875 19.23046875 C-78.66497554 20.79834552 -83.40037535 20.88591767 -88.35546875 19.0546875 C-91.32892511 16.34359494 -92.32772906 13.95965312 -93.48046875 10.1171875 C-93.48046875 5.14636378 -92.33768123 2.28187151 -89.07714844 -1.46704102 C-86.16997393 -4.04482465 -82.77906509 -4.98718253 -79.10546875 -6.0703125 C-77.90301514 -6.4408374 -77.90301514 -6.4408374 -76.67626953 -6.81884766 C-74.28525544 -7.53743253 -71.88655947 -8.21667613 -69.48046875 -8.8828125 C-68.26875 -9.22699219 -67.05703125 -9.57117188 -65.80859375 -9.92578125 C-44.13425047 -15.14821917 -18.23444464 -13.84094853 0 0 Z " fill="#FD8000" transform="translate(580.48046875,91.8828125)"/>
<path d="M0 0 C0.92296875 0.350625 1.8459375 0.70125 2.796875 1.0625 C12.30416678 5.21113641 18.75439436 12.35308802 23.125 21.640625 C24.93387211 26.51811943 25.13542833 31.11461118 25.17358398 36.29370117 C25.180271 37.00988617 25.18695801 37.72607117 25.19384766 38.46395874 C25.20785212 40.0135195 25.21976064 41.56310033 25.22979546 43.11269188 C25.24629699 45.57327397 25.26954058 48.03370892 25.29469299 50.49421692 C25.36519883 57.4883379 25.42536855 64.4825199 25.47680664 71.47680664 C25.50879415 75.76206351 25.55012027 80.04715115 25.59700203 84.33226967 C25.61290675 85.95675901 25.62528076 87.58128724 25.63390923 89.20583153 C24.95234721 103.59709155 24.95234721 103.59709155 29.9375 116.375 C32.81476383 117.90171142 35.47227497 118.81950769 38.5625 119.8125 C42.23737915 121.08038283 44.6037334 121.95448764 46.6875 125.3125 C48.44836923 130.25970403 48.96723325 133.81099842 46.8125 138.6875 C43.71531496 142.63908092 41.38879812 144.65889169 36.4375 145.875 C25.97641379 146.68578362 16.46003544 143.68410524 8.3125 137.25 C-1.39131997 128.38614622 -3.19132677 116.55838208 -4 104 C-4.24669908 98.27215331 -4.41072185 92.5435192 -4.5625 86.8125 C-4.60580621 85.27277761 -4.64942381 83.73306394 -4.69335938 82.19335938 C-4.79915736 78.46233316 -4.90076068 74.73120711 -5 71 C-6.06734375 71.37511719 -7.1346875 71.75023437 -8.234375 72.13671875 C-16.56916227 75.01372037 -24.84408006 77.51470801 -33.4375 79.5 C-42.22262054 81.57869726 -50.16062134 84.06920756 -56.625 90.6875 C-59.55473168 95.61477601 -59.4785722 100.42245855 -59 106 C-57.33151214 110.74201814 -55.24410386 113.32436931 -51 116 C-44.94531777 118.57042016 -39.35805639 119.51914087 -32.8125 119.4375 C-31.99676514 119.43427734 -31.18103027 119.43105469 -30.34057617 119.42773438 C-22.77631138 119.25613865 -16.11833333 117.6011528 -9 115 C-8.84144531 115.53367187 -8.68289062 116.06734375 -8.51953125 116.6171875 C-6.59743957 122.75513771 -3.97745078 128.31041583 -1 134 C-0.33061179 135.33196909 0.3370022 136.66483853 1 138 C-21.44290924 145.54819284 -45.24019541 149.07988108 -67.7265625 139.21875 C-77.71278688 133.86531013 -84.10579799 126.23504503 -88.16870117 115.7668457 C-89.54926497 111.17185905 -89.58010028 106.76596688 -89.5 102 C-89.51546875 101.07960938 -89.5309375 100.15921875 -89.546875 99.2109375 C-89.49219377 89.50501996 -86.5277994 81.81354172 -79.82421875 74.80078125 C-79.22222656 74.20652344 -78.62023437 73.61226563 -78 73 C-77.51144531 72.47792969 -77.02289063 71.95585937 -76.51953125 71.41796875 C-66.45556932 61.61272049 -51.00151985 58.27993229 -37.8125 54.9375 C-19.13765738 51.16705442 -19.13765738 51.16705442 -5 40 C-3.98811389 36.0970107 -3.79626778 33.69268953 -4.9375 29.8125 C-8.85655909 24.46832852 -14.17291908 22.98734928 -20.5 21.6875 C-34.65616152 19.71097933 -47.85612739 22.49530435 -61.2109375 27.109375 C-65.9044494 28.60814351 -69.60766112 28.48196346 -74.25 26.875 C-77.65181919 24.55557782 -78.65773362 22.87765844 -80 19 C-80.49873572 15.01011421 -80.24283133 12.60707832 -78.75 8.875 C-74.53490214 4.46830678 -69.72004073 2.81803017 -64 1 C-63.2869873 0.76861328 -62.57397461 0.53722656 -61.83935547 0.29882812 C-42.45084111 -5.74498332 -19.19160154 -7.63644878 0 0 Z " fill="#FD8000" transform="translate(89,84)"/>
<path d="M0 0 C14.43763214 10.17458197 25.31299447 23.66313111 32 40 C31.34 40 30.68 40 30 40 C28.58984375 38.1640625 28.58984375 38.1640625 26.9375 35.625 C15.6778907 19.15433184 -0.36772811 5.95758991 -20.18359375 1.46875 C-38.60675669 -1.59751845 -55.2569159 1.78257838 -71 12 C-90.69340948 26.13397232 -100.72751638 49.8532214 -104.75 73.08984375 C-105.82105816 80.41617911 -106.27689 87.60088388 -106 95 C-105.67128906 94.06800781 -105.34257813 93.13601562 -105.00390625 92.17578125 C-98.03144418 73.18641495 -86.35834315 58.87168563 -68.1953125 49.5625 C-58.11183134 44.97164679 -47.0779501 42.72770886 -36 43 C-36.52162941 64.9558561 -46.80301725 85.52239115 -62 101 C-69.99787951 108.46052198 -79.49294963 114.79814737 -90 118 C-89.67920889 108.05547545 -86.30592547 99.280855 -83 90 C-97.13044802 110.50677263 -106.29977421 133.98432335 -106.2734375 159.14453125 C-106.29370278 161.22331291 -106.31455306 163.30208893 -106.3359375 165.38085938 C-106.35861013 168.61097047 -106.37505099 171.84085758 -106.38085938 175.07104492 C-106.39037782 178.22093569 -106.42411172 181.36985792 -106.4609375 184.51953125 C-106.45589203 185.48212357 -106.45084656 186.44471588 -106.44564819 187.43647766 C-106.53122101 193.27553911 -107.1789471 196.51687466 -111 201 C-114.30259924 203.90228418 -116.88157448 204.91559053 -121.3125 205.25 C-126.66430237 204.88716594 -129.71949363 203.41893949 -133.3125 199.4375 C-135.58980394 196.14806098 -136.12603014 194.50390706 -136.14044189 190.5594635 C-136.14615204 189.62495865 -136.15186218 188.6904538 -136.15774536 187.72763062 C-136.15886322 186.69868683 -136.15998108 185.66974304 -136.16113281 184.60961914 C-136.16609772 183.52793961 -136.17106262 182.44626007 -136.17617798 181.33180237 C-136.19084459 177.73291392 -136.197614 174.13406975 -136.203125 170.53515625 C-136.2088789 168.02762349 -136.2146366 165.52009073 -136.22039795 163.01255798 C-136.22957788 158.41229672 -136.2358688 153.81204809 -136.2388947 149.2117787 C-136.24290432 143.15096295 -136.25502563 137.09030373 -136.28125 131.02954102 C-136.30901233 124.51084832 -136.3216569 117.99228948 -136.32357025 111.47353935 C-136.32657102 109.00237349 -136.33451084 106.53120795 -136.34775543 104.06007576 C-136.43370293 86.7699809 -136.23701689 69.23417015 -130.3125 52.75 C-130.05903809 52.02167969 -129.80557617 51.29335937 -129.54443359 50.54296875 C-125.27019574 38.74843117 -119.26668121 28.46450645 -111 19 C-110.47148438 18.32839844 -109.94296875 17.65679687 -109.3984375 16.96484375 C-83.63371647 -14.95548796 -34.02941915 -21.42721993 0 0 Z " fill="#009531" transform="translate(988,24)"/>
<path d="M0 0 C10.15245415 7.00638377 10.15245415 7.00638377 11.33203125 12.609375 C11.03906113 13.95215473 10.7110715 15.28830824 10.33203125 16.609375 C9.00751953 15.59617187 9.00751953 15.59617187 7.65625 14.5625 C-0.52962573 8.4268177 -7.98773174 3.51516985 -18.35546875 2.109375 C-24.15253638 2.98440408 -28.74848345 5.2633855 -32.73046875 9.609375 C-34.97029602 12.33372273 -34.97029602 12.33372273 -34.2890625 14.796875 C-34.08410156 15.395 -33.87914062 15.993125 -33.66796875 16.609375 C-32.98089844 16.65835937 -32.29382812 16.70734375 -31.5859375 16.7578125 C-30.68488281 16.83257812 -29.78382812 16.90734375 -28.85546875 16.984375 C-27.96214844 17.05398438 -27.06882812 17.12359375 -26.1484375 17.1953125 C-23.66796875 17.609375 -23.66796875 17.609375 -20.66796875 19.609375 C-20.17296875 19.114375 -19.67796875 18.619375 -19.16796875 18.109375 C-15.65404267 16.00101935 -12.67218748 16.01858863 -8.66796875 16.609375 C-6.16796875 17.734375 -6.16796875 17.734375 -4.66796875 19.609375 C-4.10546875 22.609375 -4.10546875 22.609375 -4.66796875 25.609375 C-6.91796875 27.546875 -6.91796875 27.546875 -9.66796875 28.609375 C-11.98046875 28.296875 -11.98046875 28.296875 -13.66796875 27.609375 C-12.01733404 30.8328194 -12.01733404 30.8328194 -9.16796875 31.171875 C-4.03725425 30.34729588 0.56505345 28.2344704 4.33203125 24.609375 C4.7354176 22.28712717 5.0749412 19.95233472 5.33203125 17.609375 C14.09430431 17.43206496 22.85669837 17.26613458 31.61945534 17.11459923 C35.68865364 17.04387526 39.75770316 16.96928086 43.82666016 16.88574219 C47.75577758 16.80521859 51.68495824 16.73499128 55.61439133 16.67180252 C57.11110553 16.64594314 58.60776116 16.61641762 60.10432816 16.58311081 C62.20574329 16.53697843 64.3069916 16.50406342 66.40869141 16.47412109 C67.60338043 16.45191498 68.79806946 16.42970886 70.02896118 16.40682983 C73.55757456 16.62320538 77.70432431 16.98166806 80.33203125 19.609375 C80.66203125 15.319375 80.99203125 11.029375 81.33203125 6.609375 C86.33203125 9.609375 86.33203125 9.609375 87.2578125 11.65234375 C87.61588542 13.63802083 87.97395833 15.62369792 88.33203125 17.609375 C88.97016754 17.59605133 89.60830383 17.58272766 90.26577759 17.56900024 C96.9167258 17.43610109 103.567296 17.34569818 110.21923828 17.27978516 C112.70051396 17.24964033 115.18168332 17.20871685 117.66259766 17.15673828 C121.23236331 17.08382757 124.80071854 17.04989402 128.37109375 17.0234375 C129.47756256 16.99246979 130.58403137 16.96150208 131.72402954 16.92959595 C140.3336235 16.92584652 140.3336235 16.92584652 144.07958984 20.52099609 C146.33203125 23.609375 146.33203125 23.609375 146.33203125 25.609375 C142.04203125 25.609375 137.75203125 25.609375 133.33203125 25.609375 C133.33203125 43.759375 133.33203125 61.909375 133.33203125 80.609375 C127.66012702 77.77342289 125.48543037 73.91444662 122.39453125 68.546875 C117.40928558 60.19689776 110.72138194 57.69708077 101.76171875 54.76953125 C98.80545216 53.35793772 97.43939359 51.76255884 95.45703125 49.171875 C94.84085938 48.38941406 94.2246875 47.60695313 93.58984375 46.80078125 C93.17476562 46.07761719 92.7596875 45.35445313 92.33203125 44.609375 C93.7185333 40.44986884 96.59159607 39.32742927 100.20703125 37.234375 C100.88088867 36.83734375 101.55474609 36.4403125 102.24902344 36.03125 C108.67827473 32.29990643 115.26756988 28.96419546 122.33203125 26.609375 C111.44203125 26.279375 100.55203125 25.949375 89.33203125 25.609375 C89.33203125 44.749375 89.33203125 63.889375 89.33203125 83.609375 C82.33203125 77.609375 82.33203125 77.609375 81.33203125 76.609375 C81.19622388 73.57863583 81.12131571 70.56756247 81.0859375 67.53515625 C81.05298206 65.65168836 81.01977072 63.76822493 80.98632812 61.88476562 C80.93901556 58.90701564 80.89462926 55.92928151 80.85522461 52.95141602 C80.8153664 50.08329562 80.76383527 47.2155617 80.7109375 44.34765625 C80.69831627 43.0207653 80.69831627 43.0207653 80.68544006 41.66706848 C80.59180496 36.95667037 80.245035 33.00118831 78.33203125 28.609375 C74.96825676 25.80622959 70.74744813 26.38201126 66.58203125 26.484375 C65.88464844 26.49339844 65.18726563 26.50242187 64.46875 26.51171875 C62.75636167 26.53517612 61.04415121 26.57104396 59.33203125 26.609375 C60.24597656 27.02960938 61.15992188 27.44984375 62.1015625 27.8828125 C67.986301 31.02798108 71.96723692 35.86804568 74.33203125 42.109375 C75.81695832 47.38405458 75.36029177 51.81838215 73.45703125 56.984375 C72.33203125 58.609375 72.33203125 58.609375 69.33203125 60.609375 C66.26584464 61.14581649 63.39885252 61.14634551 60.33203125 60.609375 C57.23579699 58.0417661 56.47673428 56.49568106 55.83203125 52.546875 C56.45807334 48.86887774 57.30496377 47.76018611 60.33203125 45.609375 C63.58203125 44.859375 63.58203125 44.859375 66.33203125 44.609375 C62.70737022 40.66489094 60.34836043 39.11753959 55.33203125 36.609375 C55.33203125 51.129375 55.33203125 65.649375 55.33203125 80.609375 C50.6916957 78.28920722 49.53553414 76.43138178 47.5390625 71.75 C44.54728597 65.00870441 40.29234039 60.26607803 33.390625 57.37890625 C32.36066406 57.00121094 31.33070313 56.62351562 30.26953125 56.234375 C23.92630012 53.84661879 20.84558626 50.28797272 17.33203125 44.609375 C24.4133805 36.81989082 33.44884609 31.17784618 43.33203125 27.609375 C44.32203125 27.609375 45.31203125 27.609375 46.33203125 27.609375 C46.33203125 26.949375 46.33203125 26.289375 46.33203125 25.609375 C35.44203125 25.609375 24.55203125 25.609375 13.33203125 25.609375 C13.33203125 44.749375 13.33203125 63.889375 13.33203125 83.609375 C9.94367744 80.22102119 8.78681444 78.87769255 7.01953125 74.796875 C2.69730799 65.89047556 -3.55742202 61.25359369 -12.66796875 57.609375 C-13.90546875 57.34125 -15.14296875 57.073125 -16.41796875 56.796875 C-21.04545868 55.10606137 -23.3538503 51.89007029 -25.66796875 47.609375 C-25.66796875 46.619375 -25.66796875 45.629375 -25.66796875 44.609375 C-23.98828125 43.00390625 -23.98828125 43.00390625 -21.79296875 41.421875 C-21.07367187 40.89207031 -20.354375 40.36226563 -19.61328125 39.81640625 C-17.66796875 38.609375 -17.66796875 38.609375 -15.66796875 38.609375 C-15.66796875 37.949375 -15.66796875 37.289375 -15.66796875 36.609375 C-16.45171875 36.34125 -17.23546875 36.073125 -18.04296875 35.796875 C-20.66796875 34.609375 -20.66796875 34.609375 -22.66796875 31.609375 C-22.79296875 28.421875 -22.79296875 28.421875 -22.66796875 25.609375 C-25.63796875 25.609375 -28.60796875 25.609375 -31.66796875 25.609375 C-31.66796875 43.759375 -31.66796875 61.909375 -31.66796875 80.609375 C-35.82634785 78.53018545 -37.90386361 77.32039551 -40.66796875 73.609375 C-41.3553365 69.94005778 -41.25003148 66.34283679 -41.15625 62.62109375 C-41.14917526 61.56275833 -41.14210052 60.50442291 -41.1348114 59.41401672 C-41.10687094 56.04091063 -41.04412996 52.66947754 -40.98046875 49.296875 C-40.95538557 47.00718547 -40.93257244 44.71746986 -40.91210938 42.42773438 C-40.85704483 36.82097209 -40.7707717 31.21545698 -40.66796875 25.609375 C-43.96796875 25.609375 -47.26796875 25.609375 -50.66796875 25.609375 C-50.66796875 44.089375 -50.66796875 62.569375 -50.66796875 81.609375 C-55.87707214 78.48391297 -56.32771226 78.06757677 -58.23046875 72.796875 C-59.97321865 68.24697416 -61.75170108 64.4977319 -64.66796875 60.609375 C-65.20421875 60.8775 -65.74046875 61.145625 -66.29296875 61.421875 C-67.07671875 61.81375 -67.86046875 62.205625 -68.66796875 62.609375 C-69.57546875 63.145625 -70.48296875 63.681875 -71.41796875 64.234375 C-76.04137819 66.19043284 -79.91984349 66.41135708 -84.67578125 65.0234375 C-95.71771544 60.3035519 -101.27732322 49.14466105 -105.66796875 38.609375 C-106.36860009 36.30693794 -107.03721779 33.99442832 -107.66796875 31.671875 C-109.35085969 25.62675361 -111.95685993 22.57941052 -116.66796875 18.609375 C-116.66796875 18.279375 -116.66796875 17.949375 -116.66796875 17.609375 C-92.57796875 17.279375 -68.48796875 16.949375 -43.66796875 16.609375 C-44.16296875 15.619375 -44.16296875 15.619375 -44.66796875 14.609375 C-45.04739158 10.05630107 -45.15900519 7.59144787 -43.10546875 3.484375 C-30.81726691 -11.00940153 -15.28735984 -9.7261313 0 0 Z M-103.66796875 25.609375 C-102.67796875 26.104375 -102.67796875 26.104375 -101.66796875 26.609375 C-101.33169649 28.27545119 -100.99912087 29.94227357 -100.66796875 31.609375 C-95.8982586 43.3966636 -95.8982586 43.3966636 -86.66796875 51.609375 C-82.32955053 53.3223022 -79.13551061 54.2026366 -74.73046875 52.421875 C-72.47041814 50.59346047 -72.47041814 50.59346047 -70.66796875 47.609375 C-70.64047397 45.54026907 -70.64047397 45.54026907 -71.04296875 43.421875 C-71.24921875 42.16375 -71.45546875 40.905625 -71.66796875 39.609375 C-74.85286882 39.3320249 -74.85286882 39.3320249 -77.66796875 41.609375 C-81.92560668 42.28369703 -85.51263133 42.31384903 -89.23046875 40.046875 C-91.20771787 36.69414823 -91.15483814 34.43477734 -90.66796875 30.609375 C-89.29296875 28.796875 -89.29296875 28.796875 -87.66796875 27.609375 C-87.00796875 26.949375 -86.34796875 26.289375 -85.66796875 25.609375 C-91.60796875 25.609375 -97.54796875 25.609375 -103.66796875 25.609375 Z M-73.66796875 25.609375 C-72.01796875 26.929375 -70.36796875 28.249375 -68.66796875 29.609375 C-64.23031892 34.1444842 -62.64098641 37.82947228 -61.35546875 43.984375 C-61.10313477 45.08845703 -61.10313477 45.08845703 -60.84570312 46.21484375 C-60.43780237 48.00960707 -60.05069289 49.80907485 -59.66796875 51.609375 C-59.33796875 51.609375 -59.00796875 51.609375 -58.66796875 51.609375 C-58.66796875 43.029375 -58.66796875 34.449375 -58.66796875 25.609375 C-63.61796875 25.609375 -68.56796875 25.609375 -73.66796875 25.609375 Z M-1.66796875 41.421875 C-2.55484375 41.94394531 -3.44171875 42.46601563 -4.35546875 43.00390625 C-6.90133145 44.56168378 -6.90133145 44.56168378 -8.66796875 47.609375 C-7.78044922 48.29773438 -7.78044922 48.29773438 -6.875 49 C-6.08480469 49.61359375 -5.29460937 50.2271875 -4.48046875 50.859375 C-3.31451172 51.76429688 -3.31451172 51.76429688 -2.125 52.6875 C0.37514652 54.64309951 2.85345204 56.62651163 5.33203125 58.609375 C5.33203125 52.009375 5.33203125 45.409375 5.33203125 38.609375 C2.44316304 38.609375 0.79705768 39.94930834 -1.66796875 41.421875 Z M39.20703125 41.484375 C38.29695313 42.01804687 37.386875 42.55171875 36.44921875 43.1015625 C35.75054688 43.59914063 35.051875 44.09671875 34.33203125 44.609375 C34.33203125 45.269375 34.33203125 45.929375 34.33203125 46.609375 C35.98625447 48.05642225 35.98625447 48.05642225 38.08203125 49.484375 C41.23125616 51.71216003 43.53517359 53.81251734 46.33203125 56.609375 C46.33203125 50.669375 46.33203125 44.729375 46.33203125 38.609375 C43.40971321 38.609375 41.69980212 40.00007553 39.20703125 41.484375 Z M115.70703125 41.484375 C114.23363281 42.28488281 114.23363281 42.28488281 112.73046875 43.1015625 C110.22768249 44.38540302 110.22768249 44.38540302 109.33203125 46.609375 C109.91210938 46.98449219 110.4921875 47.35960937 111.08984375 47.74609375 C111.87101562 48.25785156 112.6521875 48.76960938 113.45703125 49.296875 C114.60558594 50.04517578 114.60558594 50.04517578 115.77734375 50.80859375 C118.75482361 52.90739836 121.5335152 55.2772783 124.33203125 57.609375 C124.33203125 51.339375 124.33203125 45.069375 124.33203125 38.609375 C120.65304758 38.609375 118.9127446 39.71658057 115.70703125 41.484375 Z " fill="#11181F" transform="translate(1060.66796875,281.390625)"/>
<path d="M0 0 C11.43468934 9.05339844 18.13656438 22.63546652 20.39047241 36.78598022 C21.22880399 44.27060701 21.10837469 51.7895546 21.1015625 59.3125 C21.10545798 61.11704098 21.10979438 62.92158107 21.11454773 64.72612 C21.12196311 68.4854939 21.12175081 72.24477378 21.11645508 76.00415039 C21.11063559 80.81012477 21.12767367 85.61571686 21.15079975 90.421628 C21.16555176 94.13891326 21.16640732 97.85610641 21.16329002 101.57341576 C21.16380147 103.34556021 21.16900596 105.11771005 21.17910194 106.88982582 C21.19149181 109.36601203 21.18466222 111.84145197 21.1730957 114.31762695 C21.18073944 115.04036804 21.18838318 115.76310913 21.19625854 116.50775146 C21.13357126 122.60497881 19.7972706 127.28160174 15.61328125 131.82421875 C12.05934759 133.87760264 8.86358722 134.65004186 4.80078125 134.44921875 C0.14508068 132.97491357 -3.10537623 131.25702493 -6.19921875 127.44921875 C-7.41489125 123.80220124 -7.35165322 120.44570182 -7.35693359 116.64819336 C-7.36201431 115.85427185 -7.36709503 115.06035034 -7.37232971 114.24237061 C-7.38303194 112.51706483 -7.3916527 110.79174518 -7.39844894 109.0664196 C-7.41025459 106.32875759 -7.4297148 103.59125215 -7.4515686 100.85365295 C-7.51310686 93.06923704 -7.56709165 85.28483518 -7.60058594 77.50024414 C-7.62162913 72.73744185 -7.65701525 67.97492213 -7.70134354 63.21228218 C-7.71543426 61.40358387 -7.7242102 59.59483552 -7.72739792 57.78608513 C-7.69948826 39.07310624 -7.69948826 39.07310624 -17.19921875 23.44921875 C-23.86913136 18.1214227 -31.06927399 15.92972161 -39.58203125 16.13671875 C-47.26983348 17.05466529 -54.15213143 20.60776166 -59.19921875 26.44921875 C-66.2136915 36.44560525 -66.00788805 46.03883623 -65.86328125 57.71484375 C-65.86437738 59.56183321 -65.86869811 61.40882326 -65.87606812 63.25579834 C-65.8893902 68.08617671 -65.87077106 72.91580359 -65.84161377 77.74609375 C-65.7960058 85.48888618 -65.78070644 93.23128002 -65.80115891 100.9741745 C-65.80078821 103.66436476 -65.77511301 106.3534894 -65.74746704 109.04351807 C-65.74678183 110.70251455 -65.74708586 112.36151183 -65.74853516 114.02050781 C-65.73407852 114.7583551 -65.71962189 115.49620239 -65.70472717 116.25640869 C-65.745655 121.72540432 -67.23955608 125.84548949 -70.19921875 130.44921875 C-73.09066936 133.07946689 -76.37653451 134.25132732 -80.25 134.671875 C-85.90005958 134.39760026 -89.47140077 131.52280536 -93.19921875 127.44921875 C-94.8100704 124.22751545 -94.36452522 120.70706405 -94.3762207 117.16674805 C-94.3827919 116.30951645 -94.3893631 115.45228485 -94.39613342 114.56907654 C-94.41590396 111.72052931 -94.42754344 108.87203516 -94.4375 106.0234375 C-94.44157553 105.04856699 -94.44565105 104.07369648 -94.44985008 103.06928444 C-94.47073659 97.89962602 -94.48502156 92.72999426 -94.49438477 87.56030273 C-94.50539529 82.24565408 -94.53972531 76.93143038 -94.57955647 71.61693096 C-94.60585259 67.5116555 -94.61408856 63.40647873 -94.61766624 59.30112648 C-94.62250646 57.34412613 -94.63404628 55.38712941 -94.65270424 53.43021202 C-94.8302088 33.56194751 -91.07704075 17.81691434 -76.89453125 2.95703125 C-54.65336172 -17.73692648 -23.75364265 -16.74990432 0 0 Z " fill="#FD8000" transform="translate(240.19921875,94.55078125)"/>
<path d="M0 0 C4.37086093 2.18543046 4.37086093 2.18543046 5.75 6.0625 C6.65916309 8.2454589 6.65916309 8.2454589 8 10 C11.5615662 10.73596217 11.5615662 10.73596217 13.9609375 10.7265625 C17.56815082 11.21028842 19.45985344 13.52335711 22 16 C22.99 15.360625 23.98 14.72125 25 14.0625 C30.2860306 11.07381872 35.1900938 10.43269126 41.125 11.6875 C46.40798141 13.22361247 50.14029782 16.14029782 54 20 C54.33 14.06 54.66 8.12 55 2 C60 4 60 4 61.8125 7.125 C62.4003125 8.548125 62.4003125 8.548125 63 10 C63.60055206 9.99555878 64.20110413 9.99111755 64.81985474 9.98654175 C71.08170182 9.94222593 77.3435042 9.91209928 83.60546875 9.89013672 C85.94109914 9.88009169 88.276717 9.86645323 90.61230469 9.84912109 C93.97333881 9.82480723 97.33420634 9.81350173 100.6953125 9.8046875 C101.73615997 9.79436493 102.77700745 9.78404236 103.84939575 9.77340698 C109.84497034 9.77248333 114.5607044 10.2803522 120 13 C120 8.71 120 4.42 120 0 C125 3 125 3 125.92578125 5.04296875 C126.28385417 7.02864583 126.64192708 9.01432292 127 11 C127.95720444 10.9800145 127.95720444 10.9800145 128.93374634 10.95962524 C135.58469455 10.82672609 142.23526475 10.73632318 148.88720703 10.67041016 C151.36848271 10.64026533 153.84965207 10.59934185 156.33056641 10.54736328 C159.90033206 10.47445257 163.46868729 10.44051902 167.0390625 10.4140625 C168.14553131 10.38309479 169.25200012 10.35212708 170.39199829 10.32022095 C179.00159225 10.31647152 179.00159225 10.31647152 182.74755859 13.91162109 C185 17 185 17 185 19 C180.71 19 176.42 19 172 19 C172 37.15 172 55.3 172 74 C166.32809577 71.16404789 164.15339912 67.30507162 161.0625 61.9375 C156.07725433 53.58752276 149.38935069 51.08770577 140.4296875 48.16015625 C137.47342091 46.74856272 136.10736234 45.15318384 134.125 42.5625 C133.50882813 41.78003906 132.89265625 40.99757813 132.2578125 40.19140625 C131.84273437 39.46824219 131.42765625 38.74507813 131 38 C132.38650205 33.84049384 135.25956482 32.71805427 138.875 30.625 C139.54885742 30.22796875 140.22271484 29.8309375 140.91699219 29.421875 C147.34624348 25.69053143 153.93553863 22.35482046 161 20 C150.11 19.67 139.22 19.34 128 19 C128 38.14 128 57.28 128 77 C121 71 121 71 120 70 C119.86419263 66.96926083 119.78928446 63.95818747 119.75390625 60.92578125 C119.72095081 59.04231336 119.68773947 57.15884993 119.65429688 55.27539062 C119.60698431 52.29764064 119.56259801 49.31990651 119.52319336 46.34204102 C119.48333515 43.47392062 119.43180402 40.6061867 119.37890625 37.73828125 C119.36628502 36.4113903 119.36628502 36.4113903 119.35340881 35.05769348 C119.29916913 28.26336821 119.29916913 28.26336821 117 22 C114.36 21.01 111.72 20.02 109 19 C109 38.14 109 57.28 109 77 C103.43606999 71.43606999 103.43606999 71.43606999 103 65.9375 C101.75697935 55.77465524 98.37531423 47.21141836 91 40 C90.34 40 89.68 40 89 40 C89.0825 41.2375 89.165 42.475 89.25 43.75 C89.21890983 46.67247559 89.06715887 47.87789297 87.625 50.5 C83.59744814 52.8014582 79.53561903 52.62510134 75 52 C72.44571576 51.09687807 71.31063696 50.45454226 69.77734375 48.2109375 C68.11555046 43.48442996 67.75457628 37.60921416 69.9453125 33.01953125 C72.46287613 29.81320022 75.06246972 27.91570472 79 27 C85.1983375 26.39032746 89.93020047 27.21535923 95 31 C96.65 32.98 98.3 34.96 100 37 C100.33 31.06 100.66 25.12 101 19 C88.46 19 75.92 19 63 19 C63 37.15 63 55.3 63 74 C56.24959742 69.94975845 56.24959742 69.94975845 54 67 C53.59350586 63.87133789 53.59350586 63.87133789 53.71484375 60.22265625 C53.74126953 58.90458984 53.76769531 57.58652344 53.79492188 56.22851562 C53.84055339 54.83978021 53.88809781 53.4511064 53.9375 52.0625 C54.02744598 49.34473291 54.09522858 46.62910406 54.15234375 43.91015625 C54.2140979 42.10236694 54.2140979 42.10236694 54.27709961 40.25805664 C53.97412214 36.69573564 53.06911573 34.87100399 51 32 C47.64453092 34.77190924 44.50828889 37.42315899 41.625 40.6953125 C35.24558497 47.85221873 35.24558497 47.85221873 31.46484375 48.30078125 C27.33437393 47.46125486 24.82577057 46.14466631 22 43 C22.433125 42.54109375 22.86625 42.0821875 23.3125 41.609375 C23.869375 40.99578125 24.42625 40.3821875 25 39.75 C25.556875 39.14671875 26.11375 38.5434375 26.6875 37.921875 C28.37597443 35.837347 28.37597443 35.837347 28 32 C26.948125 32.495 26.948125 32.495 25.875 33 C22.63439857 34.12716572 20.40426352 34.44403437 17 34 C15.0625 32.375 15.0625 32.375 14 30 C14.19524955 25.31401076 15.08354641 23.88860479 18 20 C14.7 19.67 11.4 19.34 8 19 C8 38.14 8 57.28 8 77 C6.35 75.35 4.7 73.7 3 72 C2.40915619 71.49056854 1.81831238 70.98113708 1.20956421 70.45626831 C-0.42871385 68.48384518 -0.36633581 67.24202888 -0.35302734 64.69970703 C-0.35668304 63.835159 -0.36033875 62.97061096 -0.36410522 62.0798645 C-0.35480988 61.14858734 -0.34551453 60.21731018 -0.3359375 59.2578125 C-0.34845057 57.28515296 -0.36148772 55.31249669 -0.375 53.33984375 C-0.37893067 50.2301886 -0.3749805 47.12085498 -0.36035156 44.01123047 C-0.35177956 41.00960266 -0.37346863 38.00932183 -0.3984375 35.0078125 C-0.38509369 34.0805838 -0.37174988 33.1533551 -0.35800171 32.19802856 C-0.40898617 27.74021304 -0.54182362 25.63070889 -3.22509766 21.93701172 C-6.14378911 19.62417722 -6.14378911 19.62417722 -11 19 C-11 37.48 -11 55.96 -11 75 C-16.62484685 71.62509189 -16.62484685 71.62509189 -18.203125 68.27734375 C-18.5434375 67.57416016 -18.88375 66.87097656 -19.234375 66.14648438 C-19.56953125 65.41751953 -19.9046875 64.68855469 -20.25 63.9375 C-20.600625 63.20466797 -20.95125 62.47183594 -21.3125 61.71679688 C-22.21982745 59.81664381 -23.11102337 57.9088073 -24 56 C-24.33 55.34 -24.66 54.68 -25 54 C-25.53625 54.268125 -26.0725 54.53625 -26.625 54.8125 C-27.40875 55.204375 -28.1925 55.59625 -29 56 C-29.9075 56.53625 -30.815 57.0725 -31.75 57.625 C-36.66771578 59.70557206 -40.39903267 59.75633945 -45.41796875 58.296875 C-55.1623579 54.24804354 -60.65442687 45.66415642 -64.60449219 36.25732422 C-66.46127286 31.57065919 -68.06715538 26.8337919 -69.5 22 C-70.50435793 18.79988807 -71.86175736 16.74599177 -74.09375 14.25 C-74.63708984 13.63640625 -75.18042969 13.0228125 -75.74023438 12.390625 C-76.15595703 11.93171875 -76.57167969 11.4728125 -77 11 C-68.12472194 10.79936718 -59.24929922 10.61570059 -50.37323666 10.45341206 C-46.25128487 10.3775196 -42.12961673 10.29588795 -38.00805664 10.20092773 C-34.02711631 10.1094221 -30.04614573 10.03327004 -26.06469917 9.96755028 C-24.54923188 9.93987657 -23.0338534 9.90676356 -21.51862907 9.86800575 C-19.38862424 9.81447153 -17.25911809 9.78066536 -15.12866211 9.7512207 C-13.9184288 9.72679398 -12.7081955 9.70236725 -11.46128845 9.67720032 C-7.35803019 10.05987009 -4.68679552 11.2082362 -1 13 C-0.505 6.565 -0.505 6.565 0 0 Z M-65 19 C-64.01 20.65 -63.02 22.3 -62 24 C-60.53785403 26.93107683 -59.0997139 29.87003997 -57.69335938 32.828125 C-54.87713991 38.59855241 -51.93798003 43.23814882 -46 46 C-41.96203935 47.02784453 -39.6711759 47.21528284 -35.6875 45.9375 C-32.82891271 44.17654322 -32.82891271 44.17654322 -31.5 41.1875 C-30.9200767 37.49048896 -31.54059291 35.40528321 -33 32 C-35.6905528 33.22007944 -35.6905528 33.22007944 -38 35 C-42.04274548 35.42641534 -45.76219912 35.5570104 -49.5 33.875 C-51.62008495 31.22489382 -51.93242679 29.37866049 -52 26 C-50.6260627 23.12127423 -49.25010563 21.25010563 -47 19 C-52.94 19 -58.88 19 -65 19 Z M-35 19 C-33.35 20.32 -31.7 21.64 -30 23 C-24.15874458 28.29788282 -22.85828057 32.35807651 -22.34375 40.01171875 C-22.15748857 42.22671605 -22.15748857 42.22671605 -20 44 C-20 35.75 -20 27.5 -20 19 C-24.95 19 -29.9 19 -35 19 Z M30 23 C29.77201962 25.2137316 29.77201962 25.2137316 31.875 27 C32.926875 27.99 32.926875 27.99 34 29 C34.66 29.66 35.32 30.32 36 31 C38.31 28.69 40.62 26.38 43 24 C42.67 23.01 42.34 22.02 42 21 C36.93395388 19.6731784 34.47171108 20.33826722 30 23 Z M154.375 34.875 C152.90160156 35.67550781 152.90160156 35.67550781 151.3984375 36.4921875 C148.89565124 37.77602802 148.89565124 37.77602802 148 40 C148.58007812 40.37511719 149.16015625 40.75023437 149.7578125 41.13671875 C150.53898438 41.64847656 151.32015625 42.16023438 152.125 42.6875 C153.27355469 43.43580078 153.27355469 43.43580078 154.4453125 44.19921875 C157.42279236 46.29802336 160.20148395 48.6679033 163 51 C163 44.73 163 38.46 163 32 C159.32101633 32 157.58071335 33.10720557 154.375 34.875 Z " fill="#11181F" transform="translate(751,288)"/>
<path d="M0 0 C5.20563776 3.92308932 9.85207022 7.65099017 11.5 14.125 C11.54125 14.970625 11.5825 15.81625 11.625 16.6875 C7.7522897 14.58978192 4.29144478 12.46865546 0.875 9.6875 C-4.76882788 5.3696977 -11.09120453 3.07060947 -18.125 2.25 C-24.91897859 3.16457404 -28.91003077 5.7432271 -33.30859375 10.7734375 C-34.65756485 13.19466769 -34.45150092 14.95532441 -34.375 17.6875 C-32.61306557 17.65871513 -32.61306557 17.65871513 -30.8155365 17.62934875 C-19.73666099 17.45037447 -8.65764958 17.28770035 2.42170048 17.14091206 C8.11747585 17.06492774 13.81304932 16.98323687 19.50854492 16.88842773 C25.00675799 16.79711386 30.50499361 16.72089044 36.00356865 16.65505028 C38.09955056 16.62731554 40.19546829 16.59417765 42.29127693 16.55550575 C45.23073594 16.50219699 48.16983812 16.46824331 51.10961914 16.4387207 C51.97277237 16.41858414 52.8359256 16.39844757 53.72523499 16.37770081 C59.12948676 16.34904067 62.80143142 17.22290754 67.625 19.6875 C67.625 15.3975 67.625 11.1075 67.625 6.6875 C73.18597561 9.4679878 73.18597561 9.4679878 74.75 13.8125 C75.183125 15.235625 75.183125 15.235625 75.625 16.6875 C76.52992188 16.72617187 76.52992188 16.72617187 77.453125 16.765625 C84.0623928 17.23466981 84.0623928 17.23466981 87.1875 19.75 C87.661875 20.389375 88.13625 21.02875 88.625 21.6875 C89.429375 21.39875 90.23375 21.11 91.0625 20.8125 C92.238125 20.44125 93.41375 20.07 94.625 19.6875 C95.30175781 19.47351563 95.97851562 19.25953125 96.67578125 19.0390625 C102.6339764 17.40928976 107.8320699 17.36105927 113.625 19.6875 C116.63624479 21.81050079 119.00247543 24.06497543 121.625 26.6875 C121.955 20.7475 122.285 14.8075 122.625 8.6875 C127.625 10.6875 127.625 10.6875 129.4375 13.8125 C130.0253125 15.235625 130.0253125 15.235625 130.625 16.6875 C131.29849991 16.6844838 131.97199982 16.68146759 132.66590881 16.67835999 C139.69078329 16.65375311 146.71429935 16.67796196 153.73901367 16.73022461 C156.35877256 16.74334527 158.97862413 16.74411623 161.59838867 16.73217773 C165.36990336 16.71715178 169.13885163 16.74687439 172.91015625 16.78515625 C174.66054955 16.76377342 174.66054955 16.76377342 176.44630432 16.74195862 C182.15949139 16.84314012 185.72462355 17.07347545 189.91967773 21.18139648 C192.625 24.36708094 192.625 24.36708094 192.625 25.6875 C177.775 25.6875 162.925 25.6875 147.625 25.6875 C147.955 30.9675 148.285 36.2475 148.625 41.6875 C150.048125 40.470625 151.47125 39.25375 152.9375 38 C158.03271873 33.96568376 163.18982528 30.14824518 169.625 28.6875 C172.77794012 29.41150847 174.02329545 30.56365955 176.625 32.6875 C177.8315625 33.55375 177.8315625 33.55375 179.0625 34.4375 C179.8359375 35.05625 179.8359375 35.05625 180.625 35.6875 C180.073018 40.79333347 178.39716517 45.248616 176.5625 50.00390625 C173.1176912 59.86467143 174.62846564 70.49081804 175.625 80.6875 C170.875 79.8125 170.875 79.8125 168.625 78.6875 C167.96438532 76.10867847 167.44155672 73.61828456 167 71 C166.80325684 69.85990479 166.80325684 69.85990479 166.60253906 68.69677734 C165.36088542 60.96466147 164.11503522 52.21739434 166.625 44.6875 C157.94246825 49.78125196 152.77103898 55.47408005 148.625 64.6875 C147.5194811 63.75159496 146.41564547 62.81370142 145.3125 61.875 C144.69761719 61.35292969 144.08273437 60.83085937 143.44921875 60.29296875 C142.84722656 59.76316406 142.24523437 59.23335938 141.625 58.6875 C141.09841797 58.30078125 140.57183594 57.9140625 140.02929688 57.515625 C137.87706381 54.71383064 138.28792905 52.31610501 138.33203125 48.83203125 C138.33627609 48.17039474 138.34052094 47.50875824 138.34489441 46.82707214 C138.36166307 44.7176309 138.39930901 42.60915154 138.4375 40.5 C138.45254932 39.06837319 138.4662373 37.63673138 138.47851562 36.20507812 C138.5115597 32.69890712 138.56332833 29.19329746 138.625 25.6875 C135.985 25.6875 133.345 25.6875 130.625 25.6875 C130.625 43.8375 130.625 61.9875 130.625 80.6875 C123.87459742 76.63725845 123.87459742 76.63725845 121.625 73.6875 C121.21850586 70.55883789 121.21850586 70.55883789 121.33984375 66.91015625 C121.36626953 65.59208984 121.39269531 64.27402344 121.41992188 62.91601562 C121.46555339 61.52728021 121.51309781 60.1386064 121.5625 58.75 C121.65244598 56.03223291 121.72022858 53.31660406 121.77734375 50.59765625 C121.8390979 48.78986694 121.8390979 48.78986694 121.90209961 46.94555664 C121.59912214 43.38323564 120.69411573 41.55850399 118.625 38.6875 C115.26953092 41.45940924 112.13328889 44.11065899 109.25 47.3828125 C102.83561622 54.57894931 102.83561622 54.57894931 99.0546875 54.91796875 C95.97512197 54.22977002 93.43192186 53.09096093 90.625 51.6875 C91.66297149 49.45186911 92.65847573 47.64758663 94.25 45.75 C95.93539779 43.22190331 95.87319367 41.66582406 95.625 38.6875 C94.92375 39.0175 94.2225 39.3475 93.5 39.6875 C90.25939857 40.81466572 88.02926352 41.13153437 84.625 40.6875 C82.6875 39.0625 82.6875 39.0625 81.625 36.6875 C81.82024955 32.00151076 82.70854641 30.57610479 85.625 26.6875 C82.325 26.3575 79.025 26.0275 75.625 25.6875 C75.625 44.8275 75.625 63.9675 75.625 83.6875 C73.975 82.0375 72.325 80.3875 70.625 78.6875 C70.03415619 78.17806854 69.44331238 77.66863708 68.83456421 77.14376831 C67.19628615 75.17134518 67.25866419 73.92952888 67.27197266 71.38720703 C67.26831696 70.522659 67.26466125 69.65811096 67.26089478 68.7673645 C67.27019012 67.83608734 67.27948547 66.90481018 67.2890625 65.9453125 C67.27654943 63.97265296 67.26351228 61.99999669 67.25 60.02734375 C67.24606933 56.9176886 67.2500195 53.80835498 67.26464844 50.69873047 C67.27322044 47.69710266 67.25153137 44.69682183 67.2265625 41.6953125 C67.23990631 40.7680838 67.25325012 39.8408551 67.26699829 38.88552856 C67.21601383 34.42771304 67.08317638 32.31820889 64.39990234 28.62451172 C61.48121089 26.31167722 61.48121089 26.31167722 56.625 25.6875 C56.625 43.8375 56.625 61.9875 56.625 80.6875 C49.99293893 75.16078244 49.99293893 75.16078244 47.75 70.25 C42.9267984 60.91760732 35.67953499 57.95069198 26.12890625 54.88671875 C23.13196928 53.45136828 21.76044971 51.87739029 19.75 49.25 C19.13382812 48.46753906 18.51765625 47.68507813 17.8828125 46.87890625 C17.46773438 46.15574219 17.05265625 45.43257813 16.625 44.6875 C18.60013397 38.76209809 27.0041465 35.53542364 32.46386719 32.74902344 C37.09342064 30.49295934 41.7367627 28.31691243 46.625 26.6875 C35.735 26.3575 24.845 26.0275 13.625 25.6875 C13.625 44.8275 13.625 63.9675 13.625 83.6875 C9.00077149 79.06327149 8.64049547 78.04454986 8 71.9375 C6.51316754 61.87622772 2.27963758 52.56000543 -5.375 45.6875 C-5.705 45.6875 -6.035 45.6875 -6.375 45.6875 C-6.32859375 46.29078125 -6.2821875 46.8940625 -6.234375 47.515625 C-6.06521461 51.26131946 -5.95257904 53.90026093 -7.75 57.25 C-11.86088325 59.50119797 -15.80008569 59.44258294 -20.375 58.6875 C-23.30923195 56.89103146 -24.84705355 55.7433929 -26.375 52.6875 C-26.91817573 47.7365868 -26.89741949 43.79261815 -24.75 39.25 C-20.97904892 35.18134226 -18.00291418 33.87129676 -12.5 33.25 C-7.91881582 33.45146699 -4.04233042 34.94981222 -0.375 37.6875 C1.275 39.6675 2.925 41.6475 4.625 43.6875 C4.955 37.7475 5.285 31.8075 5.625 25.6875 C-6.585 25.6875 -18.795 25.6875 -31.375 25.6875 C-31.375 43.8375 -31.375 61.9875 -31.375 80.6875 C-35.5333791 78.60831045 -37.61089486 77.39852051 -40.375 73.6875 C-41.06236775 70.01818278 -40.95706273 66.42096179 -40.86328125 62.69921875 C-40.85620651 61.64088333 -40.84913177 60.58254791 -40.84184265 59.49214172 C-40.81390219 56.11903563 -40.75116121 52.74760254 -40.6875 49.375 C-40.66241682 47.08531047 -40.63960369 44.79559486 -40.61914062 42.50585938 C-40.56407681 36.89917085 -40.4804533 31.29345496 -40.375 25.6875 C-41.65181641 25.71312012 -42.92863281 25.73874023 -44.24414062 25.76513672 C-48.11328125 25.84277344 -48.11328125 25.84277344 -50.46875 24.4453125 C-50.9328125 23.90648437 -51.396875 23.36765625 -51.875 22.8125 C-52.3596875 22.27882813 -52.844375 21.74515625 -53.34375 21.1953125 C-54.375 19.6875 -54.375 19.6875 -54.375 17.6875 C-50.745 17.3575 -47.115 17.0275 -43.375 16.6875 C-44.035 15.6975 -44.695 14.7075 -45.375 13.6875 C-45.68793512 7.74173263 -44.15675534 4.90857008 -40.3125 0.375 C-28.73311366 -11.51487462 -13.02206911 -8.68137941 0 0 Z M97.625 29.6875 C97.39701962 31.9012316 97.39701962 31.9012316 99.5 33.6875 C100.551875 34.6775 100.551875 34.6775 101.625 35.6875 C102.285 36.3475 102.945 37.0075 103.625 37.6875 C106.265 35.0475 108.905 32.4075 111.625 29.6875 C107.08568067 25.14818067 102.6528515 26.69473125 97.625 29.6875 Z M41.125 41.0625 C40.51785156 41.37960937 39.91070312 41.69671875 39.28515625 42.0234375 C35.85277851 43.71861216 35.85277851 43.71861216 33.625 46.6875 C34.28886719 47.14640625 34.95273437 47.6053125 35.63671875 48.078125 C36.51972656 48.69171875 37.40273438 49.3053125 38.3125 49.9375 C39.18261719 50.54078125 40.05273438 51.1440625 40.94921875 51.765625 C43.57391086 53.65080532 46.10158363 55.6687669 48.625 57.6875 C48.625 51.0875 48.625 44.4875 48.625 37.6875 C46.12048921 37.6875 43.34196999 39.87635045 41.125 41.0625 Z " fill="#11181F" transform="translate(247.375,281.3125)"/>
<path d="M0 0 C5 2 5 2 6.3125 3.875 C7 6 7 6 7 10 C7.69867188 10.04898437 8.39734375 10.09796875 9.1171875 10.1484375 C10.02726562 10.22320312 10.93734375 10.29796875 11.875 10.375 C12.77992188 10.44460938 13.68484375 10.51421875 14.6171875 10.5859375 C17 11 17 11 19 13 C19 8.71 19 4.42 19 0 C24 2 24 2 25.14453125 3.9453125 C25.36496094 4.66460937 25.58539062 5.38390625 25.8125 6.125 C26.16248047 7.21167969 26.16248047 7.21167969 26.51953125 8.3203125 C26.67808594 8.87460937 26.83664062 9.42890625 27 10 C27.60055206 9.99555878 28.20110413 9.99111755 28.81985474 9.98654175 C35.08170182 9.94222593 41.3435042 9.91209928 47.60546875 9.89013672 C49.94109914 9.88009169 52.276717 9.86645323 54.61230469 9.84912109 C57.97333881 9.82480723 61.33420634 9.81350173 64.6953125 9.8046875 C65.73615997 9.79436493 66.77700745 9.78404236 67.84939575 9.77340698 C72.94985952 9.77262122 77.25172766 9.88320543 82 12 C82.495 12.495 82.495 12.495 83 13 C83.495 6.565 83.495 6.565 84 0 C89 3 89 3 89.92578125 5.04296875 C90.28385417 7.02864583 90.64192708 9.01432292 91 11 C91.63591568 10.98445572 92.27183136 10.96891144 92.92701721 10.95289612 C99.56182243 10.7977066 106.19611009 10.69232156 112.83227539 10.61547852 C115.30677236 10.58033447 117.78112458 10.53260845 120.25512695 10.47192383 C123.81758361 10.38674554 127.37811507 10.34724904 130.94140625 10.31640625 C132.04271378 10.28027725 133.1440213 10.24414825 134.27870178 10.20692444 C139.8635563 10.2040867 143.15946153 10.47006939 147.25366211 14.48022461 C150 17.68882372 150 17.68882372 150 19 C145.38 19 140.76 19 136 19 C136 37.15 136 55.3 136 74 C130.88373926 70.93024356 129.84773041 69.60310098 127.0625 64.625 C121.37645902 54.94863834 115.05371623 51.48465713 104.4296875 48.20703125 C101.28682206 46.64570421 100.09559653 44.79326528 98.1875 41.875 C97.58292969 40.96492188 96.97835937 40.05484375 96.35546875 39.1171875 C95.90816406 38.41851562 95.46085938 37.71984375 95 37 C98.39384269 33.17104927 102.20423713 30.93932866 106.625 28.5 C107.28628906 28.12230469 107.94757813 27.74460937 108.62890625 27.35546875 C114.00879906 24.35057661 119.16742025 22.3330319 125 20 C114.11 19.67 103.22 19.34 92 19 C92 38.14 92 57.28 92 77 C84.0120331 70.15317122 84.0120331 70.15317122 83.86196899 68.24298096 C83.85547333 67.47862732 83.84897766 66.71427368 83.84228516 65.92675781 C83.83202301 65.06205872 83.82176086 64.19735962 83.81118774 63.30645752 C83.80388641 62.36485779 83.79658508 61.42325806 83.7890625 60.453125 C83.76098602 58.47395017 83.7323215 56.49478362 83.703125 54.515625 C83.66189512 51.38411762 83.62502329 48.25276331 83.59863281 45.12109375 C83.57100169 42.1064426 83.52511871 39.09250205 83.4765625 36.078125 C83.47330963 35.14462219 83.47005676 34.21111938 83.46670532 33.24932861 C83.41420956 26.55238174 83.41420956 26.55238174 80 21 C77.69 20.34 75.38 19.68 73 19 C73 37.81 73 56.62 73 76 C68.91041056 74.63680352 68.13404766 71.98643691 66.25 68.375 C61.21485512 59.21619523 56.15733196 53.41589989 46 50 C44.80375 49.79375 43.6075 49.5875 42.375 49.375 C37.13707853 47.24103199 34.69260461 42.84505145 32 38 C32 37.34 32 36.68 32 36 C34.1584582 34.49673336 36.29984957 33.14307354 38.5625 31.8125 C39.15224609 31.45091797 39.74199219 31.08933594 40.34960938 30.71679688 C47.35480214 26.54242047 54.50650124 23.49696609 62 20 C50.78 19.67 39.56 19.34 28 19 C28 38.14 28 57.28 28 77 C19.04085629 69.32073396 19.04085629 69.32073396 18.75517273 67.07803345 C18.75693008 66.29511932 18.75868744 65.5122052 18.76049805 64.70556641 C18.75676682 63.8176944 18.75303558 62.92982239 18.74919128 62.01504517 C18.75332535 61.05359589 18.75745941 60.09214661 18.76171875 59.1015625 C18.74629955 57.07551413 18.72999595 55.04947233 18.71289062 53.0234375 C18.69642363 49.8214676 18.68751109 46.61997757 18.69458008 43.41796875 C18.69719545 40.33277734 18.66910983 37.24905773 18.63671875 34.1640625 C18.64692551 33.20666168 18.65713226 32.24926086 18.66764832 31.2628479 C18.64855472 25.83355682 18.64855472 25.83355682 15.71020508 21.42724609 C12.88723915 19.80361816 12.88723915 19.80361816 9 19 C9 37.15 9 55.3 9 74 C4.48243862 71.74121931 4.03315379 70.70664567 1.8125 66.375 C-2.10558224 59.46658438 -6.28630894 53.47960774 -14.1484375 51.01171875 C-15.25445312 50.73972656 -16.36046875 50.46773438 -17.5 50.1875 C-25.21922453 48.18756023 -28.79850661 43.53779291 -33 37 C-33.69637533 35.68193944 -34.37712856 34.35434611 -35 33 C-33.53240234 33.05220703 -33.53240234 33.05220703 -32.03515625 33.10546875 C-24.40738083 33.26297444 -18.1314668 33.00272286 -11 30 C-10.67 28.02 -10.34 26.04 -10 24 C-11.2065625 24.8971875 -11.2065625 24.8971875 -12.4375 25.8125 C-17.54934332 29.18030266 -23.11840732 31.40371181 -29.3125 31 C-33 30 -33 30 -35.5 27.8125 C-37.26784838 24.49778429 -37.5517483 22.7045957 -37 19 C-36 16.625 -36 16.625 -34 15 C-30.53271429 14.49656997 -27.19405084 14.40297458 -24 16 C-24 16.66 -24 17.32 -24 18 C-21.21994181 16.45552323 -19.09900736 15.10800803 -16.9375 12.75 C-15.9784375 11.88375 -15.9784375 11.88375 -15 11 C-10.24706044 11.55744353 -7.21092282 14.68825111 -4 18 C-0.97059051 22.49525279 -0.0357955 26.6915774 -1 32 C-3.25383715 36.26619174 -5.08372126 38.06279095 -9 41 C-6.36 43.31 -3.72 45.62 -1 48 C-0.67 32.16 -0.34 16.32 0 0 Z M118.375 34.875 C116.90160156 35.67550781 116.90160156 35.67550781 115.3984375 36.4921875 C112.89565124 37.77602802 112.89565124 37.77602802 112 40 C112.58007812 40.37511719 113.16015625 40.75023437 113.7578125 41.13671875 C114.53898438 41.64847656 115.32015625 42.16023438 116.125 42.6875 C117.27355469 43.43580078 117.27355469 43.43580078 118.4453125 44.19921875 C121.42279236 46.29802336 124.20148395 48.6679033 127 51 C127 44.73 127 38.46 127 32 C123.32101633 32 121.58071335 33.10720557 118.375 34.875 Z M56.4375 35.5 C55.82197266 35.83386719 55.20644531 36.16773438 54.57226562 36.51171875 C53.04716891 37.33929061 51.52345498 38.1694098 50 39 C50 39.66 50 40.32 50 41 C51.84999696 42.45291527 51.84999696 42.45291527 54.1875 43.875 C57.69848792 46.09920793 60.7118236 48.36945888 64 51 C64 44.73 64 38.46 64 32 C61.48976833 32 58.65684415 34.28859824 56.4375 35.5 Z " fill="#11181F" transform="translate(492,288)"/>
<path d="M0 0 C13.19524328 11.14989007 21.59919504 25.74513638 24 43 C24.10079736 45.809721 24.15702949 48.59504249 24.16113281 51.40454102 C24.16858017 52.63738831 24.16858017 52.63738831 24.17617798 53.8951416 C24.19071418 56.59807182 24.19758517 59.30094347 24.203125 62.00390625 C24.20888087 63.8890737 24.21463855 65.77424113 24.22039795 67.65940857 C24.23088177 71.60424063 24.23674242 75.54905246 24.24023438 79.49389648 C24.24573178 84.54682986 24.26979736 89.5994955 24.29820633 94.6523447 C24.31682763 98.54282925 24.32203791 102.43324899 24.32357025 106.32377434 C24.32659544 108.18689383 24.33461944 110.05001221 24.34775543 111.91308784 C24.36481498 114.51721828 24.3629367 117.12068984 24.35644531 119.72485352 C24.3656601 120.49226364 24.37487488 121.25967377 24.3843689 122.05033875 C24.33817679 127.96752287 22.87365277 131.07281429 18.8125 135.25 C15.25672535 137.46248201 12.14159189 138.31975526 8 138 C3.95550182 136.77220591 0.97122528 135.30025579 -1.58506775 131.87794495 C-3.31082059 128.36779691 -3.42625753 125.37883183 -3.40063477 121.55444336 C-3.41110336 120.45572403 -3.41110336 120.45572403 -3.42178345 119.33480835 C-3.44173047 116.91970227 -3.44125999 114.50502485 -3.44140625 112.08984375 C-3.45318956 110.39936688 -3.46655611 108.70890038 -3.48143005 107.01844788 C-3.51760862 102.56626183 -3.53780475 98.11416745 -3.55297852 93.66186523 C-3.57779304 86.56172986 -3.61796903 79.46179758 -3.67487907 72.36184883 C-3.69102356 69.89824132 -3.69497002 67.43482967 -3.69789124 64.97117615 C-3.76876628 49.40257831 -4.98981833 35.59201388 -16.12109375 23.69140625 C-21.46712531 18.87886641 -27.81844764 16.70637605 -35 17 C-41.35852265 18.11140564 -47.01097079 20.82672774 -51 26 C-52.28292589 28.76630895 -53.27449349 31.50220973 -54.17578125 34.4140625 C-54.92633713 36.76888711 -55.832421 38.82799714 -57 41 C-57.226875 40.113125 -57.45375 39.22625 -57.6875 38.3125 C-60.53552957 28.47385241 -64.45909704 19.59899694 -70 11 C-71.00480681 9.33622686 -72.00606087 7.67028824 -73 6 C-52.87761207 -14.03335082 -23.13558308 -17.99807334 0 0 Z " fill="#FD8000" transform="translate(323,91)"/>
<path d="M0 0 C1.65515625 0.00193359 1.65515625 0.00193359 3.34375 0.00390625 C7.90369194 0.63033392 10.49666749 2.46203783 13.75 5.625 C15.9583177 9.17408202 16.70110731 12.31099576 16.5 16.4375 C14.67909168 22.24431898 12.22945163 26.74362972 8.68359375 31.6484375 C7.69151282 33.05623893 6.70051723 34.46480565 5.71044922 35.87402344 C5.1873114 36.61438843 4.66417358 37.35475342 4.12518311 38.11755371 C1.29314696 42.16028079 -1.45794131 46.25739699 -4.21484375 50.3515625 C-4.79485138 51.21116577 -5.37485901 52.07076904 -5.97244263 52.9564209 C-7.79506237 55.65781873 -9.61635958 58.36010471 -11.4375 61.0625 C-12.07139648 62.00258911 -12.70529297 62.94267822 -13.35839844 63.91125488 C-20.87245471 75.05556551 -28.3686657 86.21124073 -35.8125 97.40258789 C-38.54895148 101.51570401 -41.29045712 105.62545345 -44.03173828 109.73535156 C-45.78990815 112.37140451 -47.54553461 115.00913596 -49.30029297 117.64746094 C-51.70481758 121.26079521 -54.11821599 124.86807252 -56.53710938 128.47180176 C-57.45939607 129.84871984 -58.37890457 131.22750352 -59.29541016 132.60827637 C-60.56321517 134.51738216 -61.84090155 136.41949889 -63.12109375 138.3203125 C-63.8473999 139.40715332 -64.57370605 140.49399414 -65.32202148 141.61376953 C-67.85237937 144.89435683 -70.4762413 147.62799652 -74.375 149.1875 C-80.54393603 149.91325718 -86.13723355 149.79203383 -91.5 146.4375 C-94.95206691 142.81032825 -96.34365317 139.42248502 -97.125 134.5 C-96.41568584 125.52112074 -89.06283497 117.77403152 -84.09375 110.6328125 C-79.5048319 104.02359924 -75.00788306 97.35209056 -70.5 90.6875 C-69.12185659 88.65117779 -67.74353691 86.61497497 -66.36520386 84.57878113 C-65.43800713 83.20903507 -64.51086292 81.83925347 -63.58377075 80.46943665 C-58.24459122 72.58114247 -52.89622707 64.69908555 -47.54516602 56.81884766 C-46.76837396 55.67481688 -45.99159988 54.53077391 -45.21484375 53.38671875 C-44.83105057 52.8214447 -44.44725739 52.25617065 -44.05183411 51.67376709 C-41.17693344 47.43806635 -38.3084414 43.19805862 -35.44140625 38.95703125 C-21.10657039 17.75728769 -21.10657039 17.75728769 -15.625 9.9375 C-14.57699219 8.43703125 -14.57699219 8.43703125 -13.5078125 6.90625 C-9.40109597 1.8567464 -6.60380522 -0.11572089 0 0 Z " fill="#FD8000" transform="translate(452.5,79.5625)"/>
<path d="M0 0 C0.66 0.99 1.32 1.98 2 3 C3.70336028 5.36347589 4.96156975 6.80408808 7.89321899 7.35717773 C10.30806312 7.49381614 12.69476843 7.50079858 15.11328125 7.46875 C16.44494576 7.47932434 16.44494576 7.47932434 17.80351257 7.4901123 C21.5940145 7.51956748 25.3840016 7.50300972 29.17456055 7.49072266 C31.94610966 7.48833277 34.71683467 7.50931371 37.48828125 7.53125 C38.33642899 7.51993042 39.18457672 7.50861084 40.0584259 7.49694824 C45.85942497 7.54586061 49.24317707 8.62644291 54 12 C56.98183486 16.32846996 57.63850079 19.80077929 57 25 C55.53312759 29.01939616 54.07616879 31.3601284 50.34713745 33.5773468 C46.60204712 35.16914422 44.03918202 35.36285265 39.98486328 35.34057617 C38.97405449 35.34123329 38.97405449 35.34123329 37.94282532 35.34190369 C35.73501715 35.33982837 33.52798654 35.31655851 31.3203125 35.29296875 C29.78189509 35.28736828 28.2434723 35.28310031 26.70504761 35.28010559 C22.67062413 35.26869219 18.6365285 35.23925568 14.60223389 35.20599365 C10.47965936 35.1752168 6.35703148 35.16158404 2.234375 35.14648438 C-5.84389987 35.11438219 -13.92190906 35.06322882 -22 35 C-20.71018752 31.69990664 -19.35232007 28.74119243 -17.4609375 25.7421875 C-16.96625977 24.95626221 -16.47158203 24.17033691 -15.96191406 23.3605957 C-15.1763916 22.13022583 -15.1763916 22.13022583 -14.375 20.875 C-13.84100586 20.03348389 -13.30701172 19.19196777 -12.75683594 18.32495117 C-8.73478758 12.03490772 -4.53431912 5.93462356 0 0 Z " fill="#FD8000" transform="translate(412,194)"/>
<path d="M0 0 C0.69323364 -0.00058411 1.38646729 -0.00116821 2.10070801 -0.00177002 C4.37910028 0.00100411 6.6561641 0.03206124 8.93432617 0.06347656 C10.51901027 0.07094142 12.10370362 0.0766332 13.68840027 0.08062744 C17.84953514 0.09586473 22.01010725 0.13512948 26.17102051 0.17944336 C30.42082101 0.22043757 34.67071286 0.23864727 38.9206543 0.25878906 C47.25229211 0.30162616 55.58347342 0.36985369 63.91479492 0.45410156 C62.29623326 4.69925673 60.18954881 8.29421604 57.63354492 12.03222656 C57.0123175 12.95029083 57.0123175 12.95029083 56.37854004 13.88690186 C55.50672946 15.17260687 54.63253888 16.45670094 53.75610352 17.73925781 C52.41265127 19.70724174 51.07930608 21.68180181 49.74682617 23.65722656 C48.89716095 24.90763121 48.04692054 26.15764525 47.19604492 27.40722656 C46.79703979 27.99884583 46.39803467 28.59046509 45.98693848 29.20001221 C43.14487344 33.3390623 43.14487344 33.3390623 40.91479492 34.45410156 C39.98666992 33.00003906 39.98666992 33.00003906 39.03979492 31.51660156 C37.25800646 28.42574795 37.25800646 28.42574795 34.91479492 27.45410156 C31.92427449 27.34520883 28.95290846 27.29267623 25.96166992 27.27832031 C24.12702311 27.25511566 22.29238767 27.23099807 20.45776367 27.20605469 C17.5633186 27.17098388 14.66928958 27.14162244 11.7746582 27.12817383 C8.98231422 27.11265815 6.19118999 27.07241887 3.39916992 27.02832031 C2.10979523 27.03118294 2.10979523 27.03118294 0.79437256 27.03410339 C-4.62776965 26.92424769 -7.80005448 26.08653338 -12.08520508 22.45410156 C-15.00084918 18.08063542 -15.65393308 14.66744163 -15.08520508 9.45410156 C-11.99206066 2.45382736 -7.4873931 -0.0531964 0 0 Z " fill="#FD8000" transform="translate(371.085205078125,79.5458984375)"/>
<path d="M0 0 C3.11427427 2.91963212 3.89906091 5.97042129 4.3125 10.1875 C3.84864373 15.84654647 2.17248155 19.8631329 -1.90625 23.875 C-5.6814783 26.91772131 -5.6814783 26.91772131 -8 28 C-10.25 27.65234375 -10.25 27.65234375 -12 27 C-12.33 25.68 -12.66 24.36 -13 23 C-12.071875 22.443125 -11.14375 21.88625 -10.1875 21.3125 C-7.0580593 19.04212145 -5.70245949 17.40491897 -4 14 C-4.9075 14.0825 -5.815 14.165 -6.75 14.25 C-10 14 -10 14 -12.375 12.4375 C-14.58646281 9.12030578 -14.42660463 6.91054241 -14 3 C-10.50655971 -2.24016043 -5.60824545 -1.37067193 0 0 Z " fill="#11181F" transform="translate(651,348)"/>
<path d="M0 0 C2 2 2 2 2.3125 5.4375 C2 9 2 9 0.75 10.875 C-1.28974393 12.18626396 -2.5726452 12.78582164 -5 13 C-7.90879043 12.23817394 -9.50386349 11.63144647 -11.375 9.25 C-12.25314395 6.08868178 -11.99594721 4.12063459 -11 1 C-7.06889047 -2.59415729 -4.6708366 -2.17972374 0 0 Z " fill="#11181F" transform="translate(287,344)"/>
<path d="M0 0 C2.03814717 2.48122264 2.0032832 3.83912318 1.9375 7.0625 C1 10 1 10 -1.1875 12 C-4.86933665 13.30909747 -6.51453433 12.62655064 -10 11 C-12 9 -12 9 -12.3125 5.5625 C-12 2 -12 2 -10.6875 0.125 C-6.64952381 -2.56698413 -4.24898038 -1.89848059 0 0 Z " fill="#11181F" transform="translate(611,344)"/>
<path d="M0 0 C2 2 2 2 2.25 5.4375 C2 9 2 9 0 12 C-2.3125 12.875 -2.3125 12.875 -5 13 C-7.2831838 11.8584081 -9.19012683 10.80987317 -11 9 C-11.27314815 3.26388889 -11.27314815 3.26388889 -11 1 C-7.27651901 -2.72348099 -4.55809374 -2.27904687 0 0 Z " fill="#11181F" transform="translate(1176,344)"/>
<path d="M0 0 C2 2 2 2 2.25 5.4375 C2 9 2 9 0 12 C-2.3125 12.875 -2.3125 12.875 -5 13 C-7.2831838 11.8584081 -9.19012683 10.80987317 -11 9 C-11.27314815 3.26388889 -11.27314815 3.26388889 -11 1 C-7.27651901 -2.72348099 -4.55809374 -2.27904687 0 0 Z " fill="#11181F" transform="translate(905,344)"/>
</svg>
